<svg width="20" height="20" viewBox="0 0 20 20" fill="none" xmlns="http://www.w3.org/2000/svg">
<g id="2674096_object_email_web_essential_icon 1" clip-path="url(#clip0_1_838)">
<g id="8-Email">
<path id="Vector" d="M18.75 2.91663H1.25C0.918479 2.91663 0.600537 3.04832 0.366116 3.28274C0.131696 3.51716 0 3.83511 0 4.16663L0 15.8333C0 16.1648 0.131696 16.4828 0.366116 16.7172C0.600537 16.9516 0.918479 17.0833 1.25 17.0833H18.75C19.0815 17.0833 19.3995 16.9516 19.6339 16.7172C19.8683 16.4828 20 16.1648 20 15.8333V4.16663C20 3.83511 19.8683 3.51716 19.6339 3.28274C19.3995 3.04832 19.0815 2.91663 18.75 2.91663ZM18.4833 3.74996L10 10.3083L1.51667 3.74996H18.4833ZM0.833333 15.6625V4.27496L7.25417 9.23746L0.833333 15.6625ZM1.42083 16.25L7.91667 9.75413L9.74167 11.1666C9.81452 11.2227 9.90389 11.2531 9.99583 11.2531C10.0878 11.2531 10.1771 11.2227 10.25 11.1666L12.0833 9.75413L18.5792 16.25H1.42083ZM19.1667 15.6625L12.7458 9.23746L19.1667 4.27496V15.6625Z" fill="black"/>
</g>
</g>
<defs>
<clipPath id="clip0_1_838">
<rect width="20" height="20" fill="white"/>
</clipPath>
</defs>
</svg>
