<svg width="20" height="20" viewBox="0 0 20 20" fill="none" xmlns="http://www.w3.org/2000/svg">
<g id="2959740_bird_news_tweet_twitter_icon 1">
<path id="Vector" d="M13.5844 4.79062C13.995 4.79626 14.4004 4.88453 14.7762 5.05016C15.152 5.21579 15.4906 5.45539 15.7719 5.75469C15.7719 5.75469 16.9656 5.52031 17.625 5.05625C17.625 5.05625 17.4594 5.975 16.3609 6.67813H16.3703C16.4547 6.67813 17.0703 6.6625 18.0391 6.20938C18.0391 6.20938 17.8531 6.73906 16.5859 7.74688C16.6625 10.1313 15.4828 14.5391 11.1172 16.1078C10.1584 16.4586 9.14592 16.6399 8.125 16.6437C6.48933 16.6512 4.88716 16.1803 3.51562 15.2891C3.75 15.3125 3.96094 15.3125 4.17188 15.3125C6.75313 15.3125 8.00313 13.9875 7.93437 13.9875H7.83906C5.65156 13.9875 5.11875 11.8938 5.11875 11.8938C5.29395 11.9997 5.49721 12.0498 5.70156 12.0375C5.9657 12.032 6.22813 11.9937 6.48281 11.9234C4.01406 11.3391 4.10625 8.97031 4.10625 8.97031C4.43987 9.19296 4.83024 9.3155 5.23125 9.32344C5.29721 9.32418 5.36311 9.31895 5.42813 9.30781C3.17344 7.52344 4.53125 5.39375 4.53125 5.39375C7.07188 8.34219 10.1953 8.44688 10.625 8.44688H10.6766C10.4453 7.0625 11.0156 5.73281 12.5516 5.00938C12.872 4.86224 13.2209 4.78755 13.5734 4.79062M19.0625 2.8125L17.0422 4.23125C16.7336 4.41621 16.4 4.55567 16.0516 4.64531C15.3444 4.09314 14.4753 3.78896 13.5781 3.77969C13.0766 3.77505 12.5803 3.88178 12.125 4.09219C10.6906 4.76563 9.81875 5.92812 9.64531 7.32344C7.94723 6.97322 6.41717 6.05981 5.30312 4.73125L4.4125 3.69844L3.67813 4.84375C3.20469 5.62366 3.0169 6.54382 3.14687 7.44688L3.08906 8.93594C3.07609 9.88121 3.39017 10.8019 3.97812 11.5422L4.13437 12.1516C4.35848 12.9385 4.81351 13.6401 5.44063 14.1656C5.0234 14.2569 4.5974 14.302 4.17031 14.3C3.98438 14.3 3.79219 14.2922 3.59844 14.2766L0.015625 13.9781L2.91406 16.1078C4.46083 17.1255 6.27349 17.6641 8.125 17.6562C9.26451 17.6532 10.3948 17.4523 11.4656 17.0625C13.6137 16.2959 15.3863 14.7352 16.4188 12.7016C17.1329 11.3128 17.5365 9.7853 17.6016 8.225C18.6375 7.33281 18.9219 6.76406 18.9984 6.54688L19.7984 4.27031L18.7047 4.77969L19.0625 2.8125Z" fill="black"/>
</g>
</svg>
